<?xml version="1.0" encoding="UTF-8" standalone="no"?>
<svg
   xmlns:dc="http://purl.org/dc/elements/1.1/"
   xmlns:cc="http://creativecommons.org/ns#"
   xmlns:rdf="http://www.w3.org/1999/02/22-rdf-syntax-ns#"
   xmlns:svg="http://www.w3.org/2000/svg"
   xmlns="http://www.w3.org/2000/svg"
   xmlns:sodipodi="http://sodipodi.sourceforge.net/DTD/sodipodi-0.dtd"
   xmlns:inkscape="http://www.inkscape.org/namespaces/inkscape"
   sodipodi:docname="logo (1).svg"
   inkscape:version="1.0 (4035a4fb49, 2020-05-01)"
   id="svg8"
   version="1.1"
   viewBox="0 0 264.58333 264.58333"
   height="1000"
   width="1000"
   inkscape:export-filename="D:\Desktop\logo.png"
   inkscape:export-xdpi="51.536701"
   inkscape:export-ydpi="51.536701">
  <defs
     id="defs2">
    <rect
       id="rect885"
       height="16.933333"
       width="158.75"
       y="291.05618"
       x="577.7336" />
    <rect
       x="257.175"
       y="1054.1"
       width="24.87083"
       height="16.933333"
       id="rect873" />
    <rect
       id="rect887"
       height="43.845238"
       width="243.41666"
       y="-169.33333"
       x="-12.095238" />
    <rect
       id="rect845"
       height="14.486837"
       width="8.8551829"
       y="164.04167"
       x="-86.178571" />
    <rect
       x="-86.178571"
       y="164.04167"
       width="8.8551829"
       height="14.486837"
       id="rect853" />
    <rect
       id="rect859"
       height="14.486837"
       width="8.8551829"
       y="164.04167"
       x="-86.178571" />
    <rect
       x="-86.178571"
       y="164.04167"
       width="8.8551829"
       height="14.486837"
       id="rect865" />
    <rect
       id="rect871"
       height="14.486837"
       width="8.8551829"
       y="164.04167"
       x="-86.178571" />
    <rect
       x="-86.178571"
       y="164.04167"
       width="8.8551829"
       height="14.486837"
       id="rect877" />
    <rect
       id="rect883"
       height="14.486837"
       width="8.8551829"
       y="164.04167"
       x="-86.178571" />
    <filter
       style="color-interpolation-filters:sRGB;"
       inkscape:label="Roughen"
       id="filter1318">
      <feTurbulence
         type="fractalNoise"
         numOctaves="5"
         seed="1"
         baseFrequency="0.009 0.009"
         result="turbulence"
         id="feTurbulence1314" />
      <feDisplacementMap
         in="SourceGraphic"
         in2="turbulence"
         scale="0"
         yChannelSelector="G"
         xChannelSelector="R"
         id="feDisplacementMap1316"
         result="fbSourceGraphic" />
      <feColorMatrix
         result="fbSourceGraphicAlpha"
         in="fbSourceGraphic"
         values="0 0 0 -1 0 0 0 0 -1 0 0 0 0 -1 0 0 0 0 1 0"
         id="feColorMatrix1842" />
      <feTurbulence
         id="feTurbulence1844"
         type="fractalNoise"
         numOctaves="5"
         seed="2"
         baseFrequency="0.01 0.01"
         result="turbulence"
         in="fbSourceGraphic" />
      <feDisplacementMap
         in2="turbulence"
         id="feDisplacementMap1846"
         in="fbSourceGraphic"
         scale="1.0479"
         yChannelSelector="G"
         xChannelSelector="R" />
    </filter>
  </defs>
  <sodipodi:namedview
     inkscape:snap-bbox="false"
     inkscape:object-paths="true"
     inkscape:object-nodes="false"
     inkscape:window-maximized="1"
     inkscape:window-y="-8"
     inkscape:window-x="1352"
     inkscape:window-height="1017"
     inkscape:window-width="1920"
     units="px"
     showgrid="false"
     inkscape:document-rotation="0"
     inkscape:current-layer="layer1"
     inkscape:document-units="mm"
     inkscape:cy="416.19087"
     inkscape:cx="501.85836"
     inkscape:zoom="0.5"
     inkscape:pageshadow="2"
     inkscape:pageopacity="0.0"
     borderopacity="1.0"
     bordercolor="#666666"
     pagecolor="#ffffff"
     id="base" />
  <metadata
     id="metadata5">
    <rdf:RDF>
      <cc:Work
         rdf:about="">
        <dc:format>image/svg+xml</dc:format>
        <dc:type
           rdf:resource="http://purl.org/dc/dcmitype/StillImage" />
        <dc:title />
      </cc:Work>
    </rdf:RDF>
  </metadata>
  <g
     id="layer1"
     inkscape:groupmode="layer"
     inkscape:label="レイヤー 1">
    <text
       style="fill:black;fill-opacity:1;stroke:none;font-family:sans-serif;font-style:normal;font-weight:normal;font-size:10.58333333px;line-height:1.25;letter-spacing:0px;word-spacing:0px;white-space:pre;shape-inside:url(#rect887);"
       id="text885"
       xml:space="preserve" />
    <path
       style="fill:#ff0000;fill-opacity:1;stroke:none;stroke-width:6;stroke-linecap:round;stroke-linejoin:round;stroke-miterlimit:4;stroke-dasharray:none;stroke-dashoffset:0;stroke-opacity:1;paint-order:normal"
       d=""
       id="path976"
       transform="scale(0.26458333)" />
    <g
       id="g1889"
       transform="translate(2.6458333)">
      <path
         id="path1856"
         d="m 117.26107,210.23628 c -1.4406,-0.17922 -3.92419,-0.52678 -5.51913,-0.77231 l -2.89986,-0.44641 V 138.15669 67.295827 h 18.70885 18.70887 v 28.25038 28.250413 h -13.05179 -13.05179 l -1.02775,1.34744 c -0.93622,1.22743 -0.99073,1.46905 -0.61198,2.71278 0.22868,0.75094 6.96183,18.87685 14.96253,40.27979 l 14.54672,38.91444 -3.03448,0.85199 c -5.68553,1.59633 -11.26731,2.35984 -18.37577,2.51354 -3.70435,0.0801 -7.91384,0 -9.35442,-0.18032 z"
         style="fill:#ff5151;fill-opacity:1;stroke:none;stroke-width:2.91611;stroke-linecap:round;stroke-linejoin:round;stroke-miterlimit:4;stroke-dasharray:none;stroke-opacity:1" />
      <path
         id="path1860"
         d="m 149.51889,168.93046 c -6.6946,-17.3899 -12.16401,-31.81982 -12.15425,-32.06649 0.01,-0.24667 3.54637,-0.64834 7.85911,-0.89258 8.12794,-0.46026 11.80581,-1.58818 14.35414,-4.40203 1.27913,-1.4124 1.40444,-3.78589 1.75186,-33.186953 0.2058,-17.41617 0.60079,-31.89213 0.87776,-32.16883 1.59911,-1.59748 18.16182,12.72243 24.61249,21.27969 13.39932,17.775133 18.13206,43.029533 12.27664,65.509913 -4.34078,16.66539 -17.03292,34.37379 -31.55741,44.02966 -2.90853,1.93357 -5.41427,3.51559 -5.56829,3.51559 -0.15404,0 -5.75743,-14.22807 -12.45205,-31.61797 z"
         style="fill:#ff5151;fill-opacity:1;stroke:none;stroke-width:5.83221;stroke-linecap:round;stroke-linejoin:round;stroke-miterlimit:4;stroke-dasharray:none;stroke-opacity:1" />
      <path
         id="path908"
         d="m 56.255412,105.50819 c -10.55304,-1.69822 -19.07569,-13.481131 -17.06872,-23.598115 1.39483,-7.031104 6.38355,-13.536494 12.5431,-16.356433 2.71201,-1.241595 3.42508,-1.334929 8.86494,-1.16032 5.37438,0.172508 6.15175,0.328472 8.49519,1.704374 5.09294,2.990205 8.78073,7.174889 10.61641,12.046839 1.07868,2.862869 1.76551,3.088624 9.42599,3.098258 l 4.63021,0.0058 v 3.96875 3.96875 h -6.30216 -6.30219 l -2.14805,3.836458 c -2.52936,4.51749 -4.19611,6.502161 -7.57801,9.023439 -4.1112,3.065 -9.70918,4.34203 -15.17671,3.46218 z m 8.14067,-8.202639 c 10.56153,-3.598671 11.60407,-18.845611 1.65092,-24.144345 -2.79233,-1.486548 -9.7097,-1.620758 -12.30825,-0.238802 -2.76855,1.472369 -5.84354,5.410978 -6.5617,8.404608 -2.57458,10.732119 6.87671,19.502518 17.21903,15.978539 z"
         style="fill:#ffec6d;fill-opacity:1;stroke:none;stroke-width:4.7625;stroke-linecap:round;stroke-linejoin:round;filter:url(#filter1318)" />
      <path
         id="path910"
         d="m 20.912872,151.39297 c -4.81113,-2.42494 -9.11725,-6.91649 -10.79159,-11.25627 -1.5623301,-4.04944 -1.6832001,-10.80505 -0.2677801,-14.96724 1.4238301,-4.18698 7.7400101,-10.46819 12.2069501,-12.13937 4.19788,-1.57052 12.37255,-1.39667 16.23253,0.3452 4.69651,2.11937 9.50142,7.64486 11.33991,13.04052 l 0.83746,2.45781 h 21.64609 21.64609 v 3.70417 3.70417 h -21.65331 -21.65329 l -0.87855,2.64502 c -1.11152,3.34648 -4.74284,8.30248 -7.44622,10.16254 -4.14293,2.85055 -7.04369,3.78847 -12.3978,4.00868 -4.90722,0.20183 -5.11754,0.16116 -8.82049,-1.70523 z m 13.178,-6.41379 c 5.13633,-1.75013 8.31138,-6.53341 8.33088,-12.55068 0.019,-5.91183 -2.11376,-9.44628 -7.13214,-11.81872 -3.96337,-1.87369 -8.79504,-1.76942 -11.93495,0.25755 -2.93653,1.8957 -5.55414,4.63681 -6.28883,6.58553 -0.79428,2.10675 -0.69707,8.00979 0.16592,10.0752 2.70624,6.47691 10.11211,9.75005 16.85912,7.45112 z"
         style="fill:#ffa775;fill-opacity:1;stroke:none;stroke-width:4.7625;stroke-linecap:round;stroke-linejoin:round;filter:url(#filter1318)" />
      <path
         id="path920"
         d="m 51.006952,198.65299 c -4.35981,-2.21718 -8.62206,-6.78642 -10.15952,-10.89129 -0.95766,-2.55686 -1.11758,-3.93253 -0.97089,-8.35267 0.14838,-4.4722 0.39886,-5.74629 1.61737,-8.22743 1.81242,-3.6904 6.18082,-8.07852 9.81128,-9.85555 2.45451,-1.20145 3.4462,-1.3639 8.32609,-1.3639 4.92937,0 5.85788,0.15568 8.4278,1.41302 3.87953,1.89808 7.58785,5.34843 9.7935,9.11222 3.28118,5.59908 3.06948,5.48206 9.91677,5.48206 h 5.99318 v 3.96875 3.96875 h -6.0034 c -6.80828,0 -6.32769,-0.2581 -9.53939,5.12311 -2.44025,4.08864 -6.14934,7.79645 -9.59263,9.58933 -2.28989,1.19232 -3.42889,1.40125 -8.46666,1.55304 -5.66381,0.17066 -5.91074,0.12967 -9.1535,-1.51944 z m 13.83167,-6.36648 c 3.04708,-0.76267 6.52884,-4.24073 7.492,-7.48405 1.61787,-5.448 0.75544,-9.70143 -2.75984,-13.61127 -3.0887,-3.43537 -5.78147,-4.43682 -11.02522,-4.1003 -4.65444,0.29871 -7.30964,1.78665 -9.98762,5.59693 -2.98622,4.24887 -2.45086,11.78426 1.13485,15.97335 3.6803,4.29961 8.16404,5.37284 15.14583,3.62534 z"
         style="fill:#68ffbc;fill-opacity:1;stroke:none;stroke-width:4.7625;stroke-linecap:round;stroke-linejoin:round;filter:url(#filter1318)" />
      <path
         id="path922"
         d="m 103.98407,260.67923 c -3.68003,-1.69266 -3.987268,-2.80877 -4.425628,-16.07705 -0.20963,-6.3448 -0.49652,-11.6514 -0.63754,-11.79242 -0.14102,-0.14103 -2.42107,-0.87435 -5.06672,-1.6296 l -4.81031,-1.3732 -2.71044,2.4369 c -3.06581,2.75643 -5.18023,3.51422 -9.81745,3.51847 -1.773,0.002 -6.43826,0.15712 -10.36727,0.34555 l -7.14365,0.34261 -1.48158,3.40087 c -2.05185,4.70985 -5.80962,8.66273 -10.4349,10.97667 -3.51211,1.75703 -4.05167,1.87058 -8.88855,1.87058 -4.82756,0 -5.38102,-0.11583 -8.85298,-1.85279 -4.24445,-2.12341 -7.78336,-5.60253 -10.0202,-9.8509 -1.3948,-2.6491 -1.49974,-3.27417 -1.49974,-8.93381 0,-5.84835 0.0676,-6.21485 1.73517,-9.40809 2.33511,-4.47148 5.25523,-7.25328 9.95865,-9.48692 3.84149,-1.82432 4.03222,-1.85787 9.34302,-1.64317 4.04159,0.16338 6.05684,0.50582 7.91768,1.34541 4.61812,2.08363 9.9599,8.10678 11.50726,12.97506 l 0.63071,1.98438 h 10.47557 10.47557 l 7.09867,-6.82286 7.09863,-6.82287 6.858688,1.7548 c 3.7723,0.96514 9.38959,2.13043 12.48289,2.58953 20.40937,3.02914 43.83677,-2.6913 60.92017,-14.87532 5.5258,-3.94104 14.94499,-12.98606 19.18325,-18.4212 10.58574,-13.57516 16.33312,-28.72229 17.68747,-46.61496 2.99522,-39.570268 -21.60254,-76.102297 -59.75881,-88.752465 -9.89455,-3.280394 -13.14294,-3.733054 -26.72292,-3.72382 -13.10532,0.0089 -15.65812,0.336156 -25.744958,3.300264 l -5.10749,1.500873 -7.05599,-7.070566 -7.05602,-7.070569 h -10.1778 -10.17778 l -1.84396,3.991015 c -2.2174,4.799253 -6.19948,8.946364 -10.72333,11.167721 -2.76074,1.355616 -3.61751,1.510014 -8.37932,1.510014 -4.96904,0 -5.53633,-0.114327 -8.97851,-1.809536 -4.51636,-2.224225 -8.34138,-5.954953 -10.22403,-9.971942 -1.2737,-2.717742 -1.42248,-3.643982 -1.42248,-8.856022 0,-5.415619 0.11052,-6.039866 1.5875,-8.96721 2.10381,-4.169701 5.7761,-7.7516 10.15966,-9.909621 3.29316,-1.62122 3.97547,-1.76064 8.61462,-1.76027 5.41655,4.2e-4 7.93898,0.78522 12.40893,3.860779 2.70338,1.860066 6.33471,6.81606 7.44623,10.162548 l 0.87854,2.645024 7.2335,0.04607 c 3.97843,0.02535 9.26515,0.203938 11.74827,0.396875 4.34141,0.33733 4.64312,0.447307 7.85765,2.864339 1.83859,1.382448 3.73599,2.507877 4.21648,2.500956 0.48051,-0.0069 2.77862,-0.568116 5.10696,-1.247095 l 4.23333,-1.234506 0.26458,-11.849781 c 0.25564,-11.4491195 0.3075,-11.9099595 1.533868,-13.6294395 2.23362,-3.13173 2.79943,-3.21138 23.41864,-3.29688 26.26024,-0.10889 24.72309,-1.07134 25.43337,15.9244575 0.24934,5.966354 0.65894,11.342877 0.91022,11.947831 0.33081,0.796388 2.04118,1.656474 6.1981,3.1168 3.15767,1.109289 9.1358,3.557598 13.2847,5.440685 l 7.54351,3.423793 7.781,-7.545477 c 8.64838,-8.386586 10.89665,-9.812597 14.08345,-8.932681 2.58006,0.712388 7.08427,4.493785 15.35981,12.894946 10.09663,10.249897 14.52657,15.439614 15.25521,17.871555 0.57004,1.90263 0.50768,2.350823 -0.62373,4.483545 -0.69138,1.303274 -4.5571,5.787347 -8.59046,9.9646 l -7.33343,7.595012 1.85864,3.690763 c 2.2856,4.538583 5.12866,11.36487 7.26715,17.448705 0.88731,2.52423 1.82796,4.85363 2.09037,5.17644 0.30192,0.3714 4.50739,0.72885 11.45246,0.97341 11.67265,0.41104 13.21747,0.72804 15.47712,3.17601 1.70503,1.84713 1.99964,5.64588 2.06695,26.65208 l 0.0497,15.51343 -1.44534,1.89493 c -2.30137,3.01725 -3.67477,3.32856 -16.29698,3.69399 l -11.33105,0.32806 -1.13845,3.4885 c -1.67132,5.12132 -5.40091,14.15198 -7.88548,19.09356 l -2.1727,4.32129 6.24437,6.60466 c 7.73639,8.18276 10.13722,11.08232 10.55524,12.74783 0.5479,2.18298 -0.76983,5.25593 -3.77061,8.79308 -3.95536,4.66235 -21.71943,21.76743 -24.57576,23.66407 -4.57134,3.03544 -6.73053,2.02092 -17.35236,-8.15323 -3.84561,-3.68354 -7.195,-6.69735 -7.44305,-6.69735 -0.24807,0 -3.53102,1.40215 -7.29546,3.11589 -3.76444,1.71375 -9.22567,3.98402 -12.13609,5.04505 -7.87183,2.86977 -7.66736,2.75334 -7.7194,4.39542 -0.0257,0.8066 -0.20704,6.12487 -0.40328,11.81837 -0.54965,15.94605 0.98589,15.00167 -24.68565,15.18201 -17.84229,0.12534 -19.19036,0.0693 -21.26388,-0.88446 z m -61.502968,-16.1145 c 2.91158,-1.04076 5.46092,-3.24324 6.97592,-6.02681 6.79572,-12.48597 -6.88904,-25.03639 -18.7547,-17.20014 -5.57477,3.68166 -7.35753,12.11752 -3.70887,17.55021 1.58059,2.35347 4.76244,4.88498 7.23783,5.75852 2.18377,0.77063 5.97014,0.7331 8.24982,-0.0818 z m 1.27518,-199.768516 c 6.82919,-3.145713 9.49222,-11.334199 5.84036,-17.958392 -1.59927,-2.900967 -4.34094,-5.470913 -6.85697,-6.427508 -0.78846,-0.299766 -2.81958,-0.545029 -4.51366,-0.545029 -7.70879,0 -13.95962,6.905293 -13.07031,14.4388 0.36791,3.116567 2.68052,7.493646 4.73046,8.953328 3.57103,2.542802 10.11447,3.268755 13.87012,1.538801 z"
         style="fill:#799bf9;fill-opacity:1;stroke:#ff5151;stroke-width:1.5875;stroke-linecap:round;stroke-linejoin:round;stroke-miterlimit:4;stroke-dasharray:none;stroke-opacity:1;filter:url(#filter1318)" />
    </g>
  </g>
</svg>
